<svg width="24" height="24" viewBox="0 0 24 24" fill="none" xmlns="http://www.w3.org/2000/svg">
<mask id="mask0_63_989" style="mask-type:alpha" maskUnits="userSpaceOnUse" x="0" y="0" width="24" height="24">
<rect width="24" height="24" fill="#D9D9D9"/>
</mask>
<g mask="url(#mask0_63_989)">
<path d="M3.1499 19.85V16.7H4.8499V10.55C4.8499 8.95003 5.3124 7.50836 6.2374 6.22502C7.1624 4.94169 8.39157 4.10836 9.9249 3.72502V3.22502C9.9249 2.64864 10.1266 2.15871 10.5301 1.75522C10.9336 1.35176 11.4235 1.15002 11.9999 1.15002C12.5763 1.15002 13.0662 1.35176 13.4697 1.75522C13.8732 2.15871 14.0749 2.64864 14.0749 3.22502V3.72502C15.6249 4.10836 16.8582 4.93752 17.7749 6.21252C18.6916 7.48752 19.1499 8.93336 19.1499 10.55V16.7H20.8499V19.85H3.1499ZM12.0249 23.125C11.3924 23.125 10.8509 22.9023 10.4005 22.4567C9.95011 22.0112 9.7249 21.4756 9.7249 20.85H14.2999C14.2999 21.4834 14.0771 22.0209 13.6316 22.4625C13.1861 22.9042 12.6505 23.125 12.0249 23.125Z" fill="#FFFBF8"/>
</g>
</svg>
