<svg width="30" height="30" viewBox="0 0 30 30" fill="none" xmlns="http://www.w3.org/2000/svg">
<mask id="mask0_27_816" style="mask-type:alpha" maskUnits="userSpaceOnUse" x="0" y="0" width="30" height="30">
<rect width="30" height="30" fill="#D9D9D9"/>
</mask>
<g mask="url(#mask0_27_816)">
<path d="M24.1871 26.9764H5.81293C5.06002 26.9764 4.40689 26.6997 3.85356 26.1464C3.30023 25.5931 3.02356 24.9399 3.02356 24.187V5.8129C3.02356 5.05863 3.30023 4.40434 3.85356 3.85003C4.40689 3.29571 5.06002 3.01855 5.81293 3.01855H24.1871C24.9413 3.01855 25.5956 3.29571 26.1499 3.85003C26.7042 4.40434 26.9814 5.05863 26.9814 5.8129V24.187C26.9814 24.9399 26.7042 25.5931 26.1499 26.1464C25.5956 26.6997 24.9413 26.9764 24.1871 26.9764ZM5.81293 24.187H15V13.7151L24.1871 24.187V5.8129H15V13.7151L5.81293 24.187Z" fill="#200F00"/>
</g>
</svg>
