<svg width="120" height="121" viewBox="0 0 120 121" fill="none" xmlns="http://www.w3.org/2000/svg">
<mask id="mask0_52_571" style="mask-type:alpha" maskUnits="userSpaceOnUse" x="0" y="0" width="120" height="121">
<rect y="0.5" width="120" height="120" fill="#D9D9D9"/>
</mask>
<g mask="url(#mask0_52_571)">
<path d="M73.5104 109.761C70.9342 112.337 67.8056 113.625 64.1244 113.625C60.4432 113.625 57.3146 112.337 54.7384 109.761L10.7384 65.761C9.49198 64.5145 8.51552 63.0779 7.80902 61.4511C7.10252 59.8242 6.74927 58.0905 6.74927 56.25V20.5C6.74927 16.855 8.04635 13.7354 10.6405 11.1412C13.2348 8.54704 16.3544 7.24995 19.9994 7.24995H55.7494C57.59 7.24995 59.3237 7.6032 60.9505 8.3097C62.5774 9.0162 64.014 9.99266 65.2604 11.2391L109.26 55.2934C111.836 57.8695 113.125 60.9891 113.125 64.6522C113.125 68.3153 111.836 71.4349 109.26 74.0111L73.5104 109.761ZM32.4994 40.5001C34.5827 40.5001 36.3536 39.7709 37.8119 38.3126C39.2702 36.8542 39.9994 35.0834 39.9994 33.0001C39.9994 30.9167 39.2702 29.1459 37.8119 27.6876C36.3536 26.2292 34.5827 25.5001 32.4994 25.5001C30.4161 25.5001 28.6452 26.2292 27.1869 27.6876C25.7286 29.1459 24.9994 30.9167 24.9994 33.0001C24.9994 35.0834 25.7286 36.8542 27.1869 38.3126C28.6452 39.7709 30.4161 40.5001 32.4994 40.5001Z" fill="#EFB359"/>
</g>
</svg>
