<svg width="52" height="33" viewBox="0 0 52 33" fill="none" xmlns="http://www.w3.org/2000/svg">
<path d="M10.6457 6.79569C19.1251 -1.50396 32.8749 -1.50396 41.3543 6.79569L42.3753 7.79417C42.476 7.89171 42.556 8.00848 42.6106 8.13754C42.6653 8.26661 42.6934 8.40534 42.6934 8.5455C42.6934 8.68565 42.6653 8.82438 42.6106 8.95345C42.556 9.08251 42.476 9.19928 42.3753 9.29682L38.8841 12.7136C38.7812 12.8134 38.6434 12.8692 38.5 12.8692C38.3567 12.8692 38.2189 12.8134 38.1159 12.7136L36.7116 11.3387C30.7965 5.55004 21.2049 5.55004 15.2884 11.3387L13.7844 12.8105C13.6814 12.9103 13.5436 12.9661 13.4003 12.9661C13.2569 12.9661 13.1191 12.9103 13.0162 12.8105L9.52499 9.39372C9.42434 9.29618 9.34431 9.17941 9.28966 9.05035C9.23501 8.92128 9.20685 8.78255 9.20685 8.64239C9.20685 8.50224 9.23501 8.36351 9.28966 8.23444C9.34431 8.10538 9.42434 7.98861 9.52499 7.89107L10.6457 6.79569ZM48.5755 13.8609L51.6819 16.9027C51.7825 17.0003 51.8625 17.117 51.9172 17.2461C51.9718 17.3752 52 17.5139 52 17.654C52 17.7942 51.9718 17.9329 51.9172 18.062C51.8625 18.1911 51.7825 18.3078 51.6819 18.4054L37.6722 32.1173C37.4664 32.3172 37.1909 32.429 36.904 32.429C36.6171 32.429 36.3416 32.3172 36.1358 32.1173L26.1931 22.3853C26.1417 22.335 26.0726 22.3069 26.0007 22.3069C25.9288 22.3069 25.8597 22.335 25.8083 22.3853L15.8656 32.1173C15.6598 32.3172 15.3843 32.429 15.0974 32.429C14.8105 32.429 14.535 32.3172 14.3292 32.1173L0.31814 18.4054C0.21749 18.3078 0.137463 18.1911 0.0828119 18.062C0.0281609 17.9329 0 17.7942 0 17.654C0 17.5139 0.0281609 17.3752 0.0828119 17.2461C0.137463 17.117 0.21749 17.0003 0.31814 16.9027L3.42594 13.8609C3.63163 13.6615 3.90689 13.5499 4.19342 13.5499C4.47994 13.5499 4.7552 13.6615 4.96089 13.8609L14.9036 23.593C14.955 23.6433 15.0241 23.6714 15.096 23.6714C15.1679 23.6714 15.237 23.6433 15.2884 23.593L25.2311 13.8609C25.4369 13.661 25.7124 13.5492 25.9993 13.5492C26.2862 13.5492 26.5617 13.661 26.7675 13.8609L36.7116 23.593C36.763 23.6433 36.8321 23.6714 36.904 23.6714C36.9759 23.6714 37.045 23.6433 37.0964 23.593L47.0391 13.8609C47.2449 13.661 47.5204 13.5492 47.8073 13.5492C48.0942 13.5492 48.3697 13.661 48.5755 13.8609Z" fill="#200F00"/>
</svg>
