<svg width="35" height="35" viewBox="0 0 35 35" fill="none" xmlns="http://www.w3.org/2000/svg">
<path d="M33.597 10.6987C32.7113 8.62008 31.459 6.75546 29.84 5.13538C28.2211 3.51528 26.3884 2.26201 24.3114 1.37554C22.1427 0.458515 19.8519 0 17.4999 0C15.1173 0 12.8265 0.458515 10.6883 1.37554C8.61124 2.26201 6.74801 3.51528 5.12912 5.13538C3.51024 6.75546 2.25789 8.62008 1.37209 10.6987C0.455734 12.8384 -0.00244141 15.131 -0.00244141 17.5153C-0.00244141 19.869 0.455734 22.1616 1.37209 24.3319C2.25789 26.4105 3.51024 28.2751 5.12912 29.8953C6.74801 31.5153 8.61124 32.7685 10.6883 33.6245C12.857 34.5415 15.1479 35 17.4999 35C19.8519 35 22.1427 34.5415 24.3114 33.6245C26.3884 32.738 28.2516 31.4847 29.8706 29.8646C31.4895 28.2446 32.7418 26.3799 33.6276 24.3013C34.544 22.131 35.0022 19.8384 35.0022 17.4847C35.0022 15.131 34.5135 12.8384 33.597 10.6987ZM11.6963 15.8646C12.3988 13.0524 14.9647 11.0043 17.9885 11.0043H30.1455C30.9396 12.5022 31.4283 14.1528 31.6116 15.8646H11.6963ZM31.6116 19.1659C31.4283 20.8777 30.9091 22.5284 30.1455 24.0262H17.9885C14.9647 24.0262 12.4293 21.9476 11.6963 19.1659H31.6116ZM7.45053 7.45851C10.1385 4.76856 13.7123 3.30131 17.4999 3.30131C21.2874 3.30131 24.8612 4.76856 27.5491 7.45851C27.6408 7.55022 27.7019 7.61135 27.7935 7.70306H17.9885C15.3617 7.70306 12.9181 8.7118 11.0548 10.5764C9.58869 12.0437 8.64179 13.8777 8.33634 15.8646H3.38805C3.75459 12.6856 5.15966 9.75109 7.45053 7.45851ZM17.4999 31.7292C13.7123 31.7292 10.1385 30.262 7.45053 27.572C5.15966 25.2795 3.75459 22.3144 3.38805 19.1659H8.33634C8.67234 21.1528 9.61923 22.9869 11.0548 24.4542C12.9181 26.3188 15.3617 27.3276 17.9885 27.3276H27.7935C27.7019 27.4192 27.6408 27.4804 27.5491 27.572C24.8612 30.262 21.2874 31.7292 17.4999 31.7292Z" fill="#200F00"/>
</svg>
